<?xml version="1.0" standalone="no"?>
<!DOCTYPE svg PUBLIC "-//W3C//DTD SVG 20010904//EN"
 "http://www.w3.org/TR/2001/REC-SVG-20010904/DTD/svg10.dtd">
<svg version="1.0" xmlns="http://www.w3.org/2000/svg"
 width="154.000000pt" height="154.000000pt" viewBox="0 0 154.000000 154.000000"
 preserveAspectRatio="xMidYMid meet">
<metadata>
Created by potrace 1.14, written by Peter Selinger 2001-2017
</metadata>
<g transform="translate(0.000000,154.000000) scale(0.100000,-0.100000)"
fill="#000000" stroke="none">
<path d="M0 770 l0 -770 770 0 770 0 0 770 0 770 -770 0 -770 0 0 -770z m675
420 c83 -110 150 -200 151 -200 0 0 79 90 175 200 l174 200 104 0 c98 0 103
-1 89 -17 -8 -10 -111 -127 -228 -261 -174 -200 -211 -247 -204 -262 8 -17
248 -337 446 -596 l88 -114 -214 0 -213 0 -167 219 -168 220 -151 -172 c-84
-95 -171 -194 -194 -220 l-41 -48 -102 3 -101 3 193 221 c106 121 216 247 245
281 l52 60 -141 184 c-157 206 -296 388 -346 455 l-34 44 219 0 218 -1 150
-199z"/>
<path d="M338 1274 c-3 -3 168 -232 380 -510 l385 -504 59 0 c32 0 58 2 58 5
0 2 -127 172 -282 377 -156 205 -328 433 -383 506 l-100 132 -56 0 c-31 0 -58
-3 -61 -6z"/>
</g>
</svg>
